/* XPM */
static char * digits_small_xpm[] = {
"44 5 2 1",
"  c #FFFFFF",
"# c #000000",
" #   #   #  ### # # ###  #  ###  #   #      ",
"# # ##  # #  #  # # #   #     # # # # #  #  ",
"# #  #    #   # ### ##  ##    #  #   ##     ",
"# #  #   #  # #   #  #  # #  #  # #   #  #  ",  
" #   #  ###  #    # #    #   #   #   #      "
};
